<?xml version="1.0" standalone="no"?><!DOCTYPE svg PUBLIC "-//W3C//DTD SVG 1.1//EN" "http://www.w3.org/Graphics/SVG/1.1/DTD/svg11.dtd"><svg t="1757305672389" class="icon" viewBox="0 0 1024 1024" version="1.1" xmlns="http://www.w3.org/2000/svg" p-id="1556" xmlns:xlink="http://www.w3.org/1999/xlink" width="200" height="200"><path d="M709.2 287.6h224c-0.4-4.9-2.4-9.6-5.7-13.2L737.7 71c-4.4-4.7-10.5-7.4-16.9-7.4h-11.6v224z" fill="#02BCF3" p-id="1557"></path><path d="M331.8 679.6h350c15.4 0 28 12.5 28 27.9 0 7.5-2.9 14.6-8.2 19.9l-98 98c-10.9 10.9-28.7 10.9-39.6 0-10.9-10.9-10.9-28.7 0-39.6l50.2-50.2H331.8c-15.5 0-28-12.5-28-28s12.6-28 28-28z m350-98h-350c-15.4 0-28-12.5-28-27.9 0-7.5 2.9-14.6 8.2-19.9l98-98c10.9-10.9 28.7-10.9 39.6 0 10.9 10.9 10.9 28.7 0 39.6l-50.2 50.2h282.4c15.5 0 28 12.5 28 28s-12.5 28-28 28z m9.1-243c-12.5 0-22.7-10.5-22.7-23.6V63.6H180c-47.9 0-86.8 42.3-86.8 94.2v707.5c0 52 38.9 94.2 86.8 94.2h666.3c47.9 0 86.9-42.3 86.9-94.2V338.6H690.9z" fill="#2F65FF" p-id="1558"></path></svg>