<?xml version="1.0" standalone="no"?><!DOCTYPE svg PUBLIC "-//W3C//DTD SVG 1.1//EN" "http://www.w3.org/Graphics/SVG/1.1/DTD/svg11.dtd"><svg t="1757310352846" class="icon" viewBox="0 0 1137 1024" version="1.1" xmlns="http://www.w3.org/2000/svg" p-id="9341" xmlns:xlink="http://www.w3.org/1999/xlink" width="222.0703125" height="200"><path d="M873.397804 791.357303h-139.584781a23.26413 23.26413 0 0 1 0-46.52826h139.584781a209.377171 209.377171 0 0 0 0-418.754342 26.521108 26.521108 0 0 1-26.521109-19.54187A302.433692 302.433692 0 0 0 245.26629 349.338831a259.627692 259.627692 0 0 0 3.722261 43.736564 23.26413 23.26413 0 0 1-3.722261 18.146022 27.916956 27.916956 0 0 1-24.659978 7.909804 162.848911 162.848911 0 0 0 0 325.697822 23.26413 23.26413 0 0 1 0 46.52826A209.377171 209.377171 0 0 1 198.73803 372.602961v-24.659978A348.961952 348.961952 0 0 1 889.682695 279.54644a255.905431 255.905431 0 0 1-16.284891 511.810863z" p-id="9342" fill="#1296db"></path><path d="M477.907591 930.942084a186.113041 186.113041 0 1 1 186.113041-186.113041 186.113041 186.113041 0 0 1-186.113041 186.113041z m0-325.697822a139.584781 139.584781 0 1 0 139.584781 139.584781 139.584781 139.584781 0 0 0-139.584781-139.584781z" p-id="9343" fill="#1296db"></path><path d="M733.813023 1023.998604a21.868282 21.868282 0 0 1-16.284891-6.979239l-139.584781-139.584781a22.798848 22.798848 0 0 1 32.569782-32.569782l139.584781 139.584781a22.333565 22.333565 0 0 1 0 32.569782 21.868282 21.868282 0 0 1-16.284891 6.979239z" p-id="9344" fill="#1296db"></path></svg>